<?xml version="1.0" encoding="UTF-8"?>
<svg version="1.1" xmlns="http://www.w3.org/2000/svg" width="512" height="512">
<path d="M0 0 C1.01790619 0.00215515 2.03581238 0.0043103 3.08456421 0.00653076 C17.69363523 0.05620146 32.02575853 0.30709809 46.375 3.3125 C47.34985352 3.51117676 48.32470703 3.70985352 49.32910156 3.91455078 C97.7109774 14.03517194 141.69928269 35.9516877 177.375 70.3125 C178.3640332 71.26068604 178.3640332 71.26068604 179.37304688 72.22802734 C188.86130305 81.37247479 197.6012044 90.66984009 205.375 101.3125 C206.23306152 102.46355017 207.09113451 103.61459177 207.94921875 104.765625 C213.98736829 112.95680614 219.34595521 121.47054105 224.375 130.3125 C224.73948242 130.94430176 225.10396484 131.57610352 225.47949219 132.22705078 C247.08534998 169.97532572 256.85198095 212.74189997 256.6875 255.9375 C256.68534485 256.95540619 256.6831897 257.97331238 256.68096924 259.02206421 C256.63129854 273.63113523 256.38040191 287.96325853 253.375 302.3125 C253.07698486 303.77478027 253.07698486 303.77478027 252.77294922 305.26660156 C242.65232806 353.6484774 220.7358123 397.63678269 186.375 433.3125 C185.74287598 433.97185547 185.11075195 434.63121094 184.45947266 435.31054688 C175.31502521 444.79880305 166.01765991 453.5387044 155.375 461.3125 C154.22394983 462.17056152 153.07290823 463.02863451 151.921875 463.88671875 C143.73224019 469.92427396 135.22961724 475.30707302 126.375 480.3125 C125.66778809 480.7146875 124.96057617 481.116875 124.23193359 481.53125 C101.09654164 494.5566741 75.92537591 503.30551461 49.9375 508.625 C49.21860596 508.77235596 48.49971191 508.91971191 47.7590332 509.0715332 C33.08339502 511.86090125 18.55831162 512.66142619 3.64770508 512.62817383 C0.70811513 512.6250221 -2.2304558 512.64854926 -5.16992188 512.67382812 C-18.54306192 512.71848737 -31.43916711 511.51301542 -44.625 509.3125 C-46.33055054 509.03031616 -46.33055054 509.03031616 -48.07055664 508.74243164 C-91.33802759 500.97044532 -132.38793216 480.98345309 -165.625 452.3125 C-166.37007813 451.67828125 -167.11515625 451.0440625 -167.8828125 450.390625 C-181.38779833 438.57948485 -194.05918743 425.82889772 -204.625 411.3125 C-205.48149066 410.16255169 -206.33826433 409.01281411 -207.1953125 407.86328125 C-213.23534209 399.67315742 -218.61867614 391.16870382 -223.625 382.3125 C-224.0271875 381.60528809 -224.429375 380.89807617 -224.84375 380.16943359 C-237.8691741 357.03404164 -246.61801461 331.86287591 -251.9375 305.875 C-252.08485596 305.15610596 -252.23221191 304.43721191 -252.3840332 303.6965332 C-255.35789088 288.05024391 -255.99800362 272.57681954 -255.9375 256.6875 C-255.93534485 255.66959381 -255.9331897 254.65168762 -255.93096924 253.60293579 C-255.88129854 238.99386477 -255.63040191 224.66174147 -252.625 210.3125 C-252.42632324 209.33764648 -252.22764648 208.36279297 -252.02294922 207.35839844 C-241.90232806 158.9765226 -219.9858123 114.98821731 -185.625 79.3125 C-184.99287598 78.65314453 -184.36075195 77.99378906 -183.70947266 77.31445312 C-174.56502521 67.82619695 -165.26765991 59.0862956 -154.625 51.3125 C-153.47394983 50.45443848 -152.32290823 49.59636549 -151.171875 48.73828125 C-142.98224019 42.70072604 -134.47961724 37.31792698 -125.625 32.3125 C-124.91778809 31.9103125 -124.21057617 31.508125 -123.48193359 31.09375 C-100.34654164 18.0683259 -75.17537591 9.31948539 -49.1875 4 C-48.46860596 3.85264404 -47.74971191 3.70528809 -47.0090332 3.5534668 C-31.36274391 0.57960912 -15.88931954 -0.06050362 0 0 Z " fill="#2C96F3" transform="translate(255.625,-0.3125)"/>
<path d="M0 0 C13.75686972 10.6955357 24.48937352 26.36376375 26.99609375 43.93359375 C28.34138112 62.32376367 24.65985421 80.13149096 12.99609375 94.93359375 C9.24447249 98.26257866 6.73630541 99.76942284 1.68359375 100.24609375 C-3.38907688 99.81620641 -6.05076864 97.61733307 -9.81640625 94.37109375 C-12.54810643 91.0642988 -12.44769783 86.9867831 -12.4296875 82.8984375 C-11.59665192 77.09775854 -8.62148786 72.10772527 -6.00390625 66.93359375 C-2.15442147 59.15711778 -2.5665012 48.2775497 -5.2421875 40.19140625 C-7.05670049 36.50835011 -8.77691128 33.15494736 -11.703125 30.2421875 C-13.00390625 28.93359375 -13.00390625 28.93359375 -13.00390625 26.93359375 C-13.53886719 26.66675781 -14.07382812 26.39992187 -14.625 26.125 C-16.39005265 25.24102454 -18.15270596 24.35225484 -19.9140625 23.4609375 C-20.95433594 22.93628906 -21.99460938 22.41164062 -23.06640625 21.87109375 C-24.10925781 21.34386719 -25.15210938 20.81664062 -26.2265625 20.2734375 C-33.85041459 16.59554542 -44.77262272 16.63106406 -52.94140625 18.99609375 C-63.06786894 23.37074623 -70.76895779 32.37267901 -78.44921875 40.04296875 C-79.63014018 41.21744565 -80.81120372 42.39177966 -81.99240112 43.565979 C-84.45502299 46.0166959 -86.91354874 48.47143895 -89.36962891 50.92871094 C-92.49386026 54.05314552 -95.63163482 57.16358238 -98.77311897 60.27065659 C-101.2132094 62.68835109 -103.64399485 65.11524316 -106.07238388 67.54468536 C-107.224422 68.69438797 -108.37964709 69.84090752 -109.53830338 70.98394012 C-119.74207766 81.0628703 -128.70942564 90.79749645 -129.31640625 105.80859375 C-129.05557606 115.84288464 -125.12633966 125.33018068 -118.33984375 132.75390625 C-114.34653008 136.38253374 -109.93998577 138.81230338 -105.00390625 140.93359375 C-104.07578125 141.34609375 -103.14765625 141.75859375 -102.19140625 142.18359375 C-91.11179499 144.79056111 -81.71234457 141.97787465 -71.94140625 136.74609375 C-66.77448761 134.07972495 -62.77344797 132.78656756 -57.00390625 133.93359375 C-51.64635529 135.85422523 -48.54553409 138.85033807 -46.00390625 143.93359375 C-45.59905486 149.19666183 -46.08472975 152.5077455 -49.00390625 156.93359375 C-58.90821964 168.02526635 -74.93792625 172.34918127 -89.2265625 173.234375 C-107.42017098 173.97291956 -123.56100665 167.98523357 -137.58984375 156.25 C-150.15592854 144.19225198 -158.3540562 126.77691101 -159.171875 109.35546875 C-159.31214907 82.9839445 -147.93658967 67.03075156 -129.93408203 48.71850586 C-128.10859955 46.87986029 -126.28019317 45.04411412 -124.44921875 43.2109375 C-123.45703497 42.21552645 -122.4649202 41.22004662 -121.47286987 40.22450256 C-119.40896125 38.1546623 -117.34305434 36.08684106 -115.27587891 34.02026367 C-112.65671438 31.4012008 -110.04450977 28.77531343 -107.43400764 26.1476202 C-105.39201033 24.09438814 -103.34536589 22.04583487 -101.29748154 19.99847603 C-99.87283124 18.57210858 -98.45270569 17.14122624 -97.03274536 15.71018982 C-69.12738156 -12.09882462 -35.0476632 -24.10951083 0 0 Z " fill="#FCFDFE" transform="translate(276.00390625,191.06640625)"/>
<path d="M0 0 C14.23098036 9.84096071 24.18073247 23.53416119 27.9375 40.5625 C31.00817396 59.0437613 28.21215228 78.97872289 17.375 94.625 C13.57767943 99.55649194 9.29896863 103.90900917 4.80859375 108.19921875 C2.77567901 110.22647865 0.94155242 112.21156553 -0.90625 114.390625 C-6.25408014 120.5728477 -12.12012244 126.26869914 -17.90600586 132.03637695 C-19.9326298 134.05764268 -21.95385547 136.08419574 -23.97460938 138.11132812 C-35.68185188 149.82433997 -35.68185188 149.82433997 -41.41333008 154.65209961 C-43.24846482 156.21107467 -44.9947432 157.85198368 -46.75 159.5 C-60.8129437 171.72267568 -77.53069231 175.95910642 -95.77929688 175.17480469 C-114.05025866 173.73658914 -131.05405092 163.46162983 -142.86328125 149.859375 C-153.69107517 135.36953012 -158.52693262 116.89465172 -157 99 C-154.68291365 86.32884778 -149.13052232 73.29728985 -140 64 C-136.26341414 61.71571997 -133.37020537 61.62325816 -129 62 C-123.32450447 64.04317839 -119.70126279 67.59747441 -117 73 C-116.37193226 79.27272718 -118.15370871 83.26743456 -120.9375 88.6875 C-121.67889871 90.16901694 -122.41729037 91.65204336 -123.15234375 93.13671875 C-123.48226318 93.78342529 -123.81218262 94.43013184 -124.15209961 95.09643555 C-127.39628664 102.37974285 -127.08911299 111.78518156 -125.12890625 119.37109375 C-120.88539904 130.29290739 -114.37904348 136.76041857 -104 142 C-103.26136719 142.37382812 -102.52273438 142.74765625 -101.76171875 143.1328125 C-93.41235705 145.75453569 -81.88318394 145.47503948 -73.875 142 C-68.8308589 138.86714102 -64.67249262 135.08038133 -60.38671875 130.98828125 C-59.65272354 130.29197098 -58.91872833 129.59566071 -58.16249084 128.87825012 C-49.8312998 120.94085406 -41.64021499 112.86164949 -33.49438477 104.73461914 C-30.91540724 102.16549162 -28.32592223 99.60724871 -25.73632812 97.04882812 C-7.39699626 79.59526465 -7.39699626 79.59526465 -0.5625 56.125 C-0.86130343 44.06893101 -5.58864781 34.99913811 -14.1875 26.75 C-22.93472079 19.82038353 -33.81698376 18.5079072 -44.64941406 19.55664062 C-49.53535665 20.47821019 -53.77814286 22.83121452 -58.14233398 25.12695312 C-63.46018194 27.89874853 -67.96175519 29.57977335 -74 28 C-78.40608743 25.83701163 -81.1987497 23.60319521 -83 19 C-83.67314004 14.03870858 -83.76503703 10.41459678 -81.34375 5.9375 C-62.02709463 -18.27270807 -23.38896867 -14.0556035 0 0 Z " fill="#FCFDFE" transform="translate(366,159)"/>
</svg>
