<?xml version="1.0" encoding="UTF-8"?>
<svg version="1.1" xmlns="http://www.w3.org/2000/svg" width="512" height="512">
<path d="M0 0 C1.42584682 -0.00548783 2.85168553 -0.0135977 4.27750432 -0.02408731 C8.17751969 -0.04518293 12.07661307 -0.02905612 15.97658777 -0.00658631 C20.18932134 0.01114421 24.40193728 -0.0058025 28.6146698 -0.01831055 C36.85965382 -0.03726284 45.10428715 -0.02410854 53.34924509 0.00021534 C62.95250964 0.02748889 72.55569114 0.02417675 82.15898459 0.01994868 C99.29326665 0.01357254 116.42738228 0.03688455 133.56161499 0.07608032 C150.18568997 0.11409904 166.80956996 0.12825189 183.4336853 0.11709595 C201.54192883 0.10497998 219.65008666 0.10533426 237.75832307 0.12806761 C239.68914628 0.13048217 241.61996948 0.13289414 243.55079269 0.1353035 C244.97575995 0.13711411 244.97575995 0.13711411 246.42951442 0.13896131 C253.12290701 0.14671865 259.8162677 0.1459328 266.50966263 0.14213181 C274.66550342 0.13788737 282.82117347 0.14834019 290.97696616 0.17735891 C295.13786926 0.19184426 299.29852373 0.20000334 303.45944786 0.19087219 C307.26905602 0.18271533 311.07815096 0.1930603 314.88768129 0.21812434 C316.91708928 0.22674725 318.94655134 0.21580326 320.97594416 0.20414579 C328.83151046 0.27986344 333.60626499 0.93595734 339.5743103 6.27578735 C344.06877071 12.00900363 345.17157083 16.35479339 344.99227905 23.5609436 C344.98325562 24.2538147 344.97423218 24.94668579 344.9649353 25.66055298 C344.94154062 27.35666756 344.90567546 29.05260231 344.86727905 30.7484436 C346.5092627 30.70131226 346.5092627 30.70131226 348.18441772 30.65322876 C352.25621971 30.54440743 356.327894 30.47566812 360.40072632 30.41885376 C362.16136304 30.38872972 363.92185027 30.34782065 365.68197632 30.29580688 C368.21677532 30.22279093 370.74958705 30.18894619 373.2852478 30.1625061 C374.06877121 30.13153839 374.85229462 30.10057068 375.65956116 30.06866455 C376.39995132 30.06821136 377.14034149 30.06775818 377.90316772 30.06729126 C378.54936569 30.05396759 379.19556366 30.04064392 379.86134338 30.0269165 C383.25823299 31.24876421 385.1788597 33.68103879 386.86727905 36.7484436 C387.55158097 39.65603403 387.54225375 42.45125628 387.49838257 45.42837524 C387.50911552 46.7051136 387.50911552 46.7051136 387.52006531 48.00764465 C387.53691237 50.80851649 387.5175753 53.60777883 387.4961853 56.40859985 C387.49701429 58.36102938 387.49947482 60.31345883 387.50349426 62.2658844 C387.50634943 66.35216346 387.49167708 70.43789353 387.46420288 74.52407837 C387.43009809 79.75880788 387.43614855 84.9925574 387.45486546 90.22733402 C387.46543856 94.25686293 387.45649516 98.28616418 387.44148064 102.31567192 C387.43630218 104.24575563 387.43677655 106.17586314 387.44302559 108.10594368 C387.44848243 110.80378409 387.42808902 113.50022555 387.40072632 116.19790649 C387.41051514 117.39110001 387.41051514 117.39110001 387.42050171 118.60839844 C387.33435293 123.60928888 386.41379264 126.20385616 382.86727905 129.7484436 C384.07109353 132.24205931 385.32156627 134.42987443 386.86727905 136.7484436 C387.07231189 139.56062001 387.16097693 142.27458036 387.1578064 145.08779907 C387.16452362 145.9385199 387.17124084 146.78924072 387.17816162 147.66574097 C387.19718367 150.48243018 387.20106797 153.29888163 387.20321655 156.1156311 C387.20964172 158.07234801 387.21636987 160.02906394 387.22338867 161.98577881 C387.23537208 166.0897952 387.23906842 170.19372735 387.23788452 174.29776001 C387.23768131 179.55602865 387.26498093 184.81375694 387.29942894 190.07189751 C387.32166974 194.11424235 387.32572292 198.15645659 387.32466507 202.19885635 C387.32702538 204.13733914 387.33587304 206.07582529 387.3513298 208.01424789 C387.37093209 210.72664939 387.36517453 213.43787859 387.3531189 216.15029907 C387.36435791 216.95047455 387.37559692 217.75065002 387.38717651 218.57507324 C387.33047526 223.59691181 386.43546283 226.1929755 382.86727905 229.7484436 C384.07109353 232.24205931 385.32156627 234.42987443 386.86727905 236.7484436 C387.07231189 239.56062001 387.16097693 242.27458036 387.1578064 245.08779907 C387.16452362 245.9385199 387.17124084 246.78924072 387.17816162 247.66574097 C387.19718367 250.48243018 387.20106797 253.29888163 387.20321655 256.1156311 C387.20964172 258.07234801 387.21636987 260.02906394 387.22338867 261.98577881 C387.23537208 266.0897952 387.23906842 270.19372735 387.23788452 274.29776001 C387.23768131 279.55602865 387.26498093 284.81375694 387.29942894 290.07189751 C387.32166974 294.11424235 387.32572292 298.15645659 387.32466507 302.19885635 C387.32702538 304.13733914 387.33587304 306.07582529 387.3513298 308.01424789 C387.37093209 310.72664939 387.36517453 313.43787859 387.3531189 316.15029907 C387.36435791 316.95047455 387.37559692 317.75065002 387.38717651 318.57507324 C387.33047526 323.59691181 386.43546283 326.1929755 382.86727905 329.7484436 C384.07109353 332.24205931 385.32156627 334.42987443 386.86727905 336.7484436 C387.07744166 339.55506835 387.17135019 342.26386172 387.17367554 345.07192993 C387.18199905 345.92104446 387.19032257 346.770159 387.19889832 347.64500427 C387.22302705 350.45687423 387.23177439 353.26851229 387.2383728 356.08047485 C387.24733771 358.03479584 387.25645953 359.98911612 387.26573181 361.94343567 C387.28223271 366.04325021 387.28992379 370.14298299 387.29281616 374.24282837 C387.29819778 379.49213688 387.33586405 384.74067505 387.38156033 389.98976612 C387.41132946 394.02786552 387.41853971 398.06577952 387.41954231 402.10397911 C387.42374573 404.0388612 387.43618492 405.97374379 387.45705986 407.90851784 C387.48396829 410.61850907 387.47915055 413.32671629 387.46664429 416.03677368 C387.48889572 417.23164398 387.48889572 417.23164398 387.51159668 418.45065308 C387.45914917 422.44913337 387.05773837 425.03415337 384.57757568 428.25035095 C381.05769833 431.49463782 381.05769833 431.49463782 377.90316772 431.42959595 C376.79258247 431.42891617 376.79258247 431.42891617 375.65956116 431.42822266 C374.87603775 431.39725494 374.09251434 431.36628723 373.2852478 431.3343811 C372.47106888 431.32589142 371.65688995 431.31740173 370.81803894 431.30865479 C368.22891381 431.27518537 365.64295524 431.1999272 363.05477905 431.1234436 C361.29505856 431.09333524 359.53528901 431.06596095 357.77548218 431.04141235 C353.47153601 430.97541639 349.1699435 430.87194689 344.86727905 430.7484436 C344.88540649 431.77832397 344.90353394 432.80820435 344.92221069 433.86929321 C344.93687185 435.23395348 344.95109003 436.59861856 344.9649353 437.96328735 C344.97802734 438.64048828 344.99111938 439.31768921 345.00460815 440.01541138 C345.05515272 446.66101051 343.74103498 450.78324998 339.14852905 455.5218811 C334.57799968 459.64697753 331.36461698 460.87196866 325.14810658 460.88266468 C323.94877894 460.88712252 322.74945131 460.89158037 321.51378042 460.8961733 C320.176113 460.896084 318.83844559 460.89589414 317.5007782 460.89561462 C316.08495822 460.89891334 314.66913918 460.90263893 313.25332135 460.9067561 C309.35340149 460.91678334 305.45349702 460.92049406 301.5535661 460.92314541 C297.35096591 460.92704632 293.14837793 460.9366248 288.94578552 460.94535828 C278.79192518 460.96512868 268.63806384 460.97518961 258.48418906 460.98408607 C253.70397376 460.988468 248.92375957 460.99383506 244.14354515 460.99907494 C228.25546276 461.01608775 212.36738106 461.03058231 196.47929096 461.03782368 C192.35544649 461.03973361 188.23160202 461.04165394 184.10775757 461.04360962 C183.08278107 461.04409336 182.05780458 461.0445771 181.00176819 461.0450755 C164.3948225 461.05337723 147.7879488 461.07871633 131.18103454 461.1111903 C114.13579243 461.14424999 97.09058693 461.16227145 80.04531258 461.16546792 C70.47310338 461.16763402 60.90099917 461.17639732 51.32882118 461.20192909 C43.17729325 461.22362119 35.02589582 461.23169386 26.8743423 461.22196231 C22.71535609 461.21741328 18.5566392 461.21933871 14.39768982 461.23872375 C10.58844986 461.25632543 6.7796763 461.25538238 2.97043159 461.23982646 C0.94343164 461.23632007 -1.08357302 461.25249903 -3.11050528 461.26943094 C-10.9510693 461.21393695 -17.129676 460.70049434 -22.9725647 454.93203735 C-23.33479126 454.35582642 -23.69701782 453.77961548 -24.07022095 453.1859436 C-24.45049438 452.60715454 -24.83076782 452.02836548 -25.2225647 451.43203735 C-27.52140098 447.17968355 -27.26085113 443.04885372 -27.2303772 438.36172485 C-27.22896225 437.54471603 -27.2275473 436.72770721 -27.22608948 435.88594055 C-27.22049389 433.27757093 -27.20794223 430.66928727 -27.19522095 428.0609436 C-27.19020538 426.29206464 -27.18564257 424.52318432 -27.18154907 422.75430298 C-27.17052591 418.41898342 -27.15326432 414.08372808 -27.13272095 409.7484436 C-27.91397339 409.76415405 -28.69522583 409.7798645 -29.50015259 409.79605103 C-33.06510074 409.858696 -36.62993272 409.89752849 -40.19522095 409.9359436 C-42.03890259 409.97364868 -42.03890259 409.97364868 -43.91983032 410.01211548 C-52.99640817 410.08551099 -59.37172551 409.32163362 -66.13272095 402.7484436 C-70.05871818 397.33327501 -70.02648598 391.17343378 -69.13272095 384.7484436 C-66.98285587 379.0705948 -63.49781505 375.60221706 -58.13272095 372.7484436 C-54.68840733 371.61020412 -51.44648434 371.63375604 -47.83584595 371.65078735 C-46.74948853 371.65328491 -45.6631311 371.65578247 -44.54385376 371.65835571 C-42.48409302 371.67201172 -42.48409302 371.67201172 -40.38272095 371.6859436 C-36.01022095 371.7065686 -31.63772095 371.7271936 -27.13272095 371.7484436 C-27.13272095 357.8884436 -27.13272095 344.0284436 -27.13272095 329.7484436 C-35.70344936 329.8666137 -35.70344936 329.8666137 -44.27359009 330.01870728 C-53.21402594 330.08079827 -59.482307 329.21412383 -66.13272095 322.7484436 C-70.05871818 317.33327501 -70.02648598 311.17343378 -69.13272095 304.7484436 C-66.98285587 299.0705948 -63.49781505 295.60221706 -58.13272095 292.7484436 C-54.68840733 291.61020412 -51.44648434 291.63375604 -47.83584595 291.65078735 C-46.74948853 291.65328491 -45.6631311 291.65578247 -44.54385376 291.65835571 C-42.48409302 291.67201172 -42.48409302 291.67201172 -40.38272095 291.6859436 C-36.01022095 291.7065686 -31.63772095 291.7271936 -27.13272095 291.7484436 C-27.13272095 277.8884436 -27.13272095 264.0284436 -27.13272095 249.7484436 C-35.70344936 249.8666137 -35.70344936 249.8666137 -44.27359009 250.01870728 C-53.21402594 250.08079827 -59.482307 249.21412383 -66.13272095 242.7484436 C-70.05871818 237.33327501 -70.02648598 231.17343378 -69.13272095 224.7484436 C-66.98285587 219.0705948 -63.49781505 215.60221706 -58.13272095 212.7484436 C-54.68840733 211.61020412 -51.44648434 211.63375604 -47.83584595 211.65078735 C-46.74948853 211.65328491 -45.6631311 211.65578247 -44.54385376 211.65835571 C-43.17067993 211.66745972 -41.7975061 211.67656372 -40.38272095 211.6859436 C-36.01022095 211.7065686 -31.63772095 211.7271936 -27.13272095 211.7484436 C-27.13272095 197.8884436 -27.13272095 184.0284436 -27.13272095 169.7484436 C-35.70344936 169.8666137 -35.70344936 169.8666137 -44.27359009 170.01870728 C-53.21402594 170.08079827 -59.482307 169.21412383 -66.13272095 162.7484436 C-70.05871818 157.33327501 -70.02648598 151.17343378 -69.13272095 144.7484436 C-66.98285587 139.0705948 -63.49781505 135.60221706 -58.13272095 132.7484436 C-54.68840733 131.61020412 -51.44648434 131.63375604 -47.83584595 131.65078735 C-46.74948853 131.65328491 -45.6631311 131.65578247 -44.54385376 131.65835571 C-43.17067993 131.66745972 -41.7975061 131.67656372 -40.38272095 131.6859436 C-36.01022095 131.7065686 -31.63772095 131.7271936 -27.13272095 131.7484436 C-27.13272095 117.8884436 -27.13272095 104.0284436 -27.13272095 89.7484436 C-35.70344936 89.8666137 -35.70344936 89.8666137 -44.27359009 90.01870728 C-53.21402594 90.08079827 -59.482307 89.21412383 -66.13272095 82.7484436 C-70.05871818 77.33327501 -70.02648598 71.17343378 -69.13272095 64.7484436 C-66.98285587 59.0705948 -63.49781505 55.60221706 -58.13272095 52.7484436 C-54.68840733 51.61020412 -51.44648434 51.63375604 -47.83584595 51.65078735 C-46.63057251 51.65401001 -45.42529907 51.65723267 -44.1835022 51.66055298 C-42.92924438 51.66893188 -41.67498657 51.67731079 -40.38272095 51.6859436 C-38.4781311 51.69271118 -38.4781311 51.69271118 -36.5350647 51.69961548 C-33.40090258 51.71139804 -30.26683554 51.72784944 -27.13272095 51.7484436 C-27.15366821 50.66949829 -27.17461548 49.59055298 -27.19619751 48.47891235 C-27.26902518 44.44600892 -27.31467479 40.41316271 -27.35244751 36.37979126 C-27.37246616 34.63978271 -27.39968981 32.89984061 -27.43447876 31.1600647 C-27.48343047 28.64769015 -27.50578682 26.13621085 -27.52334595 23.6234436 C-27.54399109 22.85540405 -27.56463623 22.0873645 -27.58590698 21.29605103 C-27.58822244 15.623495 -26.50972683 11.35823649 -23.13272095 6.7484436 C-16.21635327 0.07535565 -9.21722823 -0.10366197 0 0 Z " fill="#A44AF3" transform="translate(97.13272094726563,25.251556396484375)"/>
<path d="M0 0 C0.81362922 -0.00297112 1.62725844 -0.00594224 2.46554309 -0.0090034 C5.20147041 -0.01769924 7.93735401 -0.01919941 10.67329407 -0.02069092 C12.63117568 -0.02531853 14.58905638 -0.03034311 16.54693604 -0.03573608 C21.8735716 -0.04886905 27.20019456 -0.05530699 32.52684379 -0.05974674 C35.85450457 -0.06267649 39.18216189 -0.06678115 42.50982094 -0.07125092 C52.92051067 -0.08492924 63.33119251 -0.09459382 73.74189061 -0.09845281 C85.76054786 -0.10293219 97.77909129 -0.12047315 109.79771394 -0.1494534 C119.08614767 -0.17107294 128.3745494 -0.18115726 137.66300803 -0.18249393 C143.21103876 -0.18354191 148.75896255 -0.18944821 154.30696678 -0.20731354 C159.52804336 -0.22379846 164.74893268 -0.2259476 169.97002602 -0.21717453 C171.88400397 -0.21640434 173.79799201 -0.22074448 175.71194458 -0.23063278 C178.33007639 -0.24336333 180.94754614 -0.2374695 183.56567383 -0.22705078 C184.3185144 -0.23510719 185.07135496 -0.24316359 185.84700888 -0.25146413 C191.95279727 -0.19485382 197.55968032 0.9849021 202.34248352 5.04278564 C202.88131165 5.71438721 203.42013977 6.38598877 203.97529602 7.07794189 C204.5295929 7.74696533 205.08388977 8.41598877 205.65498352 9.10528564 C209.10578997 13.96439419 209.39731581 17.91893141 209.39082336 23.82110596 C209.39754059 24.69641464 209.40425781 25.57172333 209.41117859 26.47355652 C209.43017821 29.3677844 209.4340841 32.26178052 209.43623352 35.15606689 C209.44266124 37.17142838 209.44938958 39.18678892 209.45640564 41.20214844 C209.46838414 45.42883466 209.47208599 49.65543912 209.47090149 53.88214111 C209.47069853 59.28693125 209.49797402 64.69119418 209.53244591 70.09585953 C209.55473406 74.26013576 209.5587384 78.42428565 209.55768204 82.58861542 C209.56003613 84.58043989 209.56884881 86.57226794 209.58434677 88.56403351 C209.60404067 91.35712551 209.59815487 94.14908778 209.58613586 96.94219971 C209.59737488 97.75807053 209.60861389 98.57394135 209.62019348 99.41453552 C209.5487509 105.97974833 207.64980229 111.12527238 203.38935852 116.16387939 C202.56564758 116.83290283 202.56564758 116.83290283 201.72529602 117.51544189 C201.18131165 117.97692627 200.63732727 118.43841064 200.07685852 118.91387939 C194.9391013 122.1021319 189.73850931 122.43205714 183.83982849 122.40786743 C182.61553975 122.4146641 182.61553975 122.4146641 181.3665179 122.42159808 C178.63986115 122.43422774 175.91340451 122.43262264 173.1867218 122.43096924 C171.22839604 122.43695534 169.27007263 122.44376107 167.31175232 122.45132446 C161.99767772 122.46898227 156.68366754 122.47367973 151.36956644 122.47495604 C148.04841728 122.47637819 144.72728447 122.48064899 141.40613937 122.48595047 C129.81671357 122.50444926 118.22733376 122.51262117 106.63789368 122.51104736 C95.83945644 122.50984566 85.04121898 122.53095417 74.2428323 122.56253469 C64.96706965 122.58869434 55.69137226 122.5994148 46.415573 122.59813654 C40.87762036 122.59762687 35.33984533 122.6033135 29.80192947 122.62449265 C24.59307 122.64386993 19.38455767 122.64400284 14.17568588 122.62945938 C12.26654299 122.62736964 10.3573784 122.63208201 8.44827271 122.6441803 C5.83668583 122.65965544 3.22629267 122.65031013 0.61473083 122.63491821 C-0.13606337 122.64520534 -0.88685758 122.65549247 -1.66040313 122.66609132 C-8.02143438 122.58356126 -13.42181022 120.63244131 -17.95829773 116.07012939 C-18.41333679 115.39208252 -18.86837585 114.71403564 -19.33720398 114.01544189 C-19.81028992 113.33223877 -20.28337585 112.64903564 -20.77079773 111.94512939 C-23.33231605 107.85024544 -23.07639264 104.14154519 -23.10844421 99.42730713 C-23.118228 98.52463608 -23.12801178 97.62196503 -23.13809204 96.69194031 C-23.1680873 93.69432047 -23.18944755 90.69674557 -23.20829773 87.69903564 C-23.21486956 86.67504229 -23.22144138 85.65104893 -23.22821236 84.59602547 C-23.26083031 79.17163601 -23.28527048 73.74726635 -23.30473328 68.32281494 C-23.32252023 63.83847309 -23.35729545 59.35476315 -23.40727234 54.8706665 C-23.46757203 49.45421234 -23.49822343 44.03834252 -23.50790596 38.62156868 C-23.51644854 36.5607429 -23.53523694 34.49993221 -23.56464958 32.43929863 C-23.8276923 12.9551387 -23.8276923 12.9551387 -18.50164795 6.602005 C-12.71022533 1.31809382 -7.77322792 -0.00881599 0 0 Z " fill="#B070F4" transform="translate(176.8997039794922,84.85955810546875)"/>
<path d="M0 0 C4.88925715 1.39693061 7.05441957 3.93987562 10 8 C12.17864904 12.23750982 12.2410622 16.14769253 12.125 20.8125 C12.11597656 21.50537109 12.10695313 22.19824219 12.09765625 22.91210938 C12.07426157 24.60822395 12.03839641 26.30415871 12 28 C13.64198364 27.95286865 13.64198364 27.95286865 15.31713867 27.90478516 C19.38894065 27.79596383 23.46061494 27.72722452 27.53344727 27.67041016 C29.29408399 27.64028612 31.05457122 27.59937704 32.81469727 27.54736328 C35.34949626 27.47434733 37.88230799 27.44050259 40.41796875 27.4140625 C41.20149216 27.38309479 41.98501556 27.35212708 42.7922821 27.32022095 C43.53267227 27.31976776 44.27306244 27.31931458 45.03588867 27.31884766 C45.68208664 27.30552399 46.32828461 27.29220032 46.99406433 27.2784729 C50.39095394 28.50032061 52.31158065 30.93259518 54 34 C54.68430192 36.90759043 54.6749747 39.70281268 54.63110352 42.67993164 C54.64183647 43.95667 54.64183647 43.95667 54.65278625 45.25920105 C54.66963332 48.06007289 54.65029624 50.85933522 54.62890625 53.66015625 C54.62973524 55.61258578 54.63219576 57.56501523 54.63621521 59.5174408 C54.63907038 63.60371985 54.62439802 67.68944993 54.59692383 71.77563477 C54.56281903 77.01036428 54.5688695 82.2441138 54.5875864 87.47889042 C54.5981595 91.50841933 54.5892161 95.53772057 54.57420158 99.56722832 C54.56902312 101.49731203 54.5694975 103.42741954 54.57574654 105.35750008 C54.58120338 108.05534048 54.56080997 110.75178195 54.53344727 113.44946289 C54.54323608 114.6426564 54.54323608 114.6426564 54.55322266 115.85995483 C54.46707388 120.86084528 53.54651359 123.45541256 50 127 C51.20381448 129.49361571 52.45428722 131.68143083 54 134 C54.20503284 136.8121764 54.29369788 139.52613676 54.29052734 142.33935547 C54.29724457 143.19007629 54.30396179 144.04079712 54.31088257 144.91729736 C54.32990461 147.73398657 54.33378892 150.55043803 54.3359375 153.3671875 C54.34236267 155.32390441 54.34909082 157.28062034 54.35610962 159.23733521 C54.36809303 163.3413516 54.37178937 167.44528375 54.37060547 171.54931641 C54.37040226 176.80758504 54.39770187 182.06531333 54.43214989 187.3234539 C54.45439068 191.36579874 54.45844387 195.40801299 54.45738602 199.45041275 C54.45974633 201.38889554 54.46859398 203.32738169 54.48405075 205.26580429 C54.50365304 207.97820579 54.49789547 210.68943498 54.48583984 213.40185547 C54.49707886 214.20203094 54.50831787 215.00220642 54.51989746 215.82662964 C54.46319621 220.84846821 53.56818378 223.4445319 50 227 C51.20381448 229.49361571 52.45428722 231.68143083 54 234 C54.20503284 236.8121764 54.29369788 239.52613676 54.29052734 242.33935547 C54.29724457 243.19007629 54.30396179 244.04079712 54.31088257 244.91729736 C54.32990461 247.73398657 54.33378892 250.55043803 54.3359375 253.3671875 C54.34236267 255.32390441 54.34909082 257.28062034 54.35610962 259.23733521 C54.36809303 263.3413516 54.37178937 267.44528375 54.37060547 271.54931641 C54.37040226 276.80758504 54.39770187 282.06531333 54.43214989 287.3234539 C54.45439068 291.36579874 54.45844387 295.40801299 54.45738602 299.45041275 C54.45974633 301.38889554 54.46859398 303.32738169 54.48405075 305.26580429 C54.50365304 307.97820579 54.49789547 310.68943498 54.48583984 313.40185547 C54.49707886 314.20203094 54.50831787 315.00220642 54.51989746 315.82662964 C54.46319621 320.84846821 53.56818378 323.4445319 50 327 C51.20381448 329.49361571 52.45428722 331.68143083 54 334 C54.21016261 336.80662474 54.30407114 339.51541811 54.30639648 342.32348633 C54.31472 343.17260086 54.32304352 344.02171539 54.33161926 344.89656067 C54.355748 347.70843063 54.36449533 350.52006868 54.37109375 353.33203125 C54.38005866 355.28635224 54.38918048 357.24067251 54.39845276 359.19499207 C54.41495365 363.29480661 54.42264474 367.39453938 54.42553711 371.49438477 C54.43091872 376.74369328 54.46858499 381.99223145 54.51428127 387.24132252 C54.54405041 391.27942192 54.55126065 395.31733591 54.55226326 399.35553551 C54.55646668 401.2904176 54.56890587 403.22530019 54.58978081 405.16007423 C54.61668924 407.87006547 54.6118715 410.57827269 54.59936523 413.28833008 C54.62161667 414.48320038 54.62161667 414.48320038 54.64431763 415.70220947 C54.59187012 419.70068977 54.19045932 422.28570976 51.71029663 425.50190735 C48.19041928 428.74619421 48.19041928 428.74619421 45.03588867 428.68115234 C43.92530342 428.68047256 43.92530342 428.68047256 42.7922821 428.67977905 C42.0087587 428.64881134 41.22523529 428.61784363 40.41796875 428.5859375 C39.60378983 428.57744781 38.7896109 428.56895813 37.95075989 428.56021118 C35.36163475 428.52674176 32.77567619 428.4514836 30.1875 428.375 C28.4277795 428.34489164 26.66800996 428.31751734 24.90820312 428.29296875 C20.60425696 428.22697279 16.30266445 428.12350329 12 428 C12.01812744 429.02988037 12.03625488 430.05976074 12.05493164 431.12084961 C12.0695928 432.48550988 12.08381098 433.85017496 12.09765625 435.21484375 C12.11074829 435.89204468 12.12384033 436.56924561 12.1373291 437.26696777 C12.18787366 443.9125669 10.87375593 448.03480638 6.28125 452.7734375 C1.71072063 456.89853392 -1.50266207 458.12352506 -7.71917248 458.13422108 C-8.91850011 458.13867892 -10.11782774 458.14313676 -11.35349864 458.14772969 C-12.69116605 458.1476404 -14.02883347 458.14745054 -15.36650085 458.14717102 C-16.78232083 458.15046974 -18.19813987 458.15419532 -19.6139577 458.1583125 C-23.51387756 458.16833973 -27.41378203 458.17205045 -31.31371295 458.17470181 C-35.51631315 458.17860272 -39.71890113 458.1881812 -43.92149353 458.19691467 C-54.07535387 458.21668508 -64.22921521 458.226746 -74.38308999 458.23564246 C-79.16330529 458.2400244 -83.94351948 458.24539145 -88.7237339 458.25063133 C-104.61181629 458.26764415 -120.49989799 458.28213871 -136.38798809 458.28938007 C-140.51183256 458.29129001 -144.63567703 458.29321033 -148.75952148 458.29516602 C-149.78449798 458.29564976 -150.80947447 458.2961335 -151.86551086 458.2966319 C-168.47245656 458.30493363 -185.07933026 458.33027272 -201.68624451 458.36274669 C-218.73148662 458.39580638 -235.77669213 458.41382785 -252.82196647 458.41702431 C-262.39417567 458.41919042 -271.96627989 458.42795372 -281.53845787 458.45348549 C-289.6899858 458.47517759 -297.84138324 458.48325025 -305.99293675 458.47351871 C-310.15192296 458.46896968 -314.31063985 458.4708951 -318.46958923 458.49028015 C-322.27882919 458.50788182 -326.08760276 458.50693878 -329.89684746 458.49138286 C-331.92384741 458.48787647 -333.95085208 458.50405542 -335.97778434 458.52098733 C-343.1297517 458.4703671 -347.94304308 457.91089194 -354 454 C-356.54790426 451.37247373 -357 450.69284426 -357 447 C-356.2751442 447.0018986 -355.5502884 447.0037972 -354.80346727 447.00575334 C-311.84828561 447.11762931 -268.8931198 447.20342548 -225.93782166 447.25532665 C-220.78081315 447.26158023 -215.62380494 447.26805183 -210.46679688 447.2746582 C-209.44012388 447.27596976 -208.41345088 447.27728131 -207.35566658 447.2786326 C-190.72911918 447.30039267 -174.10265816 447.33981753 -157.47616202 447.38576398 C-140.41746158 447.43251185 -123.3588064 447.46029187 -106.30004454 447.47044247 C-95.77275661 447.47730509 -85.24571285 447.49898457 -74.71850008 447.53958233 C-67.5008405 447.56600006 -60.28330726 447.57400318 -53.06560284 447.56750689 C-48.90049619 447.56430248 -44.73581639 447.56923484 -40.57078552 447.59602737 C-36.75580176 447.62038884 -32.94153121 447.62156941 -29.12651438 447.60449447 C-27.09636681 447.60138702 -25.06622743 447.62292625 -23.03620195 447.64540654 C-15.72087666 447.58542891 -10.6021883 446.93120684 -5 442 C0.2856505 436.57525343 1.25013694 431.02373215 1.24888897 423.62267971 C1.25149625 422.89800744 1.25410354 422.17333516 1.25678983 421.42670313 C1.26308794 418.99755031 1.25512788 416.56865622 1.24723816 414.13951111 C1.24882644 412.38073031 1.25129022 410.62195012 1.25455457 408.86317164 C1.26097208 404.02928066 1.25489678 399.19547336 1.24679029 394.36158788 C1.24021615 389.14886733 1.24516114 383.93615618 1.24867249 378.72343445 C1.25371642 368.51163531 1.24807046 358.29986854 1.23882218 348.08807342 C1.22844373 336.20162811 1.22850823 324.31518981 1.22899476 312.42874081 C1.22949552 291.22421555 1.22033015 270.01970537 1.20581055 248.81518555 C1.1917211 228.22826869 1.18463984 207.6413651 1.18530273 187.05444336 C1.18536267 185.15235822 1.18536267 185.15235822 1.18542381 183.21184712 C1.18548435 181.3130855 1.18548435 181.3130855 1.1855461 179.37596506 C1.1862356 155.95383099 1.18034809 132.53170257 1.17139288 109.10957034 C1.16837399 100.81928732 1.16731302 92.52900535 1.16686058 84.23872185 C1.16617908 74.13984226 1.1617232 64.04097219 1.15252777 53.94209664 C1.14790469 48.78712889 1.14486616 43.63217333 1.14612198 38.47720337 C1.14721506 33.76167591 1.14371061 29.04617544 1.13647345 24.33065362 C1.13465665 22.62146959 1.1345332 20.91228279 1.13624074 19.20309865 C1.13830003 16.88585991 1.13425128 14.56871013 1.12863445 12.25147915 C1.12757782 10.31807538 1.12757782 10.31807538 1.12649983 8.34561294 C1.01617306 5.42773817 0.68054427 2.83137888 0 0 Z " fill="#6C2BC1" transform="translate(430,28)"/>
<path d="M0 0 C12.54 0 25.08 0 38 0 C43.62517109 6.75020531 43.62517109 6.75020531 43.62818909 10.02870178 C43.64084305 10.77016953 43.65349701 11.51163727 43.66653442 12.27557373 C43.65484222 13.06901184 43.64315002 13.86244995 43.63110352 14.67993164 C43.63825882 15.53109055 43.64541412 16.38224945 43.65278625 17.25920105 C43.66963332 20.06007289 43.65029624 22.85933522 43.62890625 25.66015625 C43.62973524 27.61258578 43.63219576 29.56501523 43.63621521 31.5174408 C43.63907038 35.60371985 43.62439802 39.68944993 43.59692383 43.77563477 C43.56281903 49.01036428 43.5688695 54.2441138 43.5875864 59.47889042 C43.5981595 63.50841933 43.5892161 67.53772057 43.57420158 71.56722832 C43.56902312 73.49731203 43.5694975 75.42741954 43.57574654 77.35750008 C43.58120338 80.05534048 43.56080997 82.75178195 43.53344727 85.44946289 C43.53997314 86.24492523 43.54649902 87.04038757 43.55322266 87.85995483 C43.46707388 92.86084528 42.54651359 95.45541256 39 99 C40.20381448 101.49361571 41.45428722 103.68143083 43 106 C43.21016261 108.80662474 43.30407114 111.51541811 43.30639648 114.32348633 C43.31472 115.17260086 43.32304352 116.02171539 43.33161926 116.89656067 C43.355748 119.70843063 43.36449533 122.52006868 43.37109375 125.33203125 C43.38005866 127.28635224 43.38918048 129.24067251 43.39845276 131.19499207 C43.41495365 135.29480661 43.42264474 139.39453938 43.42553711 143.49438477 C43.43091872 148.74369328 43.46858499 153.99223145 43.51428127 159.24132252 C43.54405041 163.27942192 43.55126065 167.31733591 43.55226326 171.35553551 C43.55646668 173.2904176 43.56890587 175.22530019 43.58978081 177.16007423 C43.61668924 179.87006547 43.6118715 182.57827269 43.59936523 185.28833008 C43.61419952 186.08491028 43.62903381 186.88149048 43.64431763 187.70220947 C43.62967216 188.81874657 43.62967216 188.81874657 43.61473083 189.95783997 C43.61674216 190.59735501 43.61875349 191.23687006 43.62082577 191.89576435 C43 194 43 194 38 200 C25.46 200 12.92 200 0 200 C0 134 0 68 0 0 Z " fill="#E35671" transform="translate(441,56)"/>
<path d="M0 0 C6.625 -0.25 6.625 -0.25 10 2 C11.25554164 6.01616273 11.1284138 10.06335727 11.13422108 14.24309921 C11.13657331 14.96541926 11.13892554 15.6877393 11.14134905 16.43194783 C11.14802077 18.8590863 11.14758138 21.28617101 11.14717102 23.71331787 C11.15047076 25.4683847 11.15419657 27.22345076 11.1583125 28.97851586 C11.16832771 33.80691518 11.17204851 38.63530207 11.17470181 43.46371031 C11.17860617 48.6690292 11.18818429 53.87433826 11.19691467 59.07965088 C11.21667333 71.65168741 11.22674365 84.22372474 11.23564246 96.79577291 C11.24002556 102.71500728 11.24539224 108.63424076 11.25063133 114.55347443 C11.26764153 134.22726633 11.2821367 153.90105768 11.28938007 173.5748558 C11.29128998 178.67978669 11.29321032 183.78471757 11.29516602 188.88964844 C11.29564976 190.15846203 11.2961335 191.42727562 11.2966319 192.73453811 C11.30493598 213.29818863 11.33028024 233.86178105 11.36274669 254.42540619 C11.39580082 275.53311074 11.41382727 296.64078575 11.41702431 317.74851632 C11.41919072 329.60164509 11.42795879 341.45468909 11.45348549 353.30779266 C11.4751698 363.40001823 11.48325399 373.49213843 11.47351871 383.58438465 C11.46896771 388.73384433 11.47090686 393.8830865 11.49028015 399.03251648 C11.50786699 403.74778989 11.5069505 408.46268636 11.49138286 413.17796353 C11.48900001 414.88254353 11.49336538 416.58714933 11.50521151 418.29168984 C11.62821074 437.16079227 11.62821074 437.16079227 5.22065526 443.86046386 C0.48134473 448.20419509 -3.30901047 450.25025628 -9.82774544 450.24888897 C-11.02579752 450.25348777 -12.2238496 450.25808656 -13.4582063 450.26282471 C-14.77589501 450.25768115 -16.09358372 450.25253759 -17.45120239 450.24723816 C-18.86391217 450.24882604 -20.27662118 450.25128943 -21.68932807 450.25455457 C-25.57580458 450.26097814 -29.46217718 450.25489218 -33.34864688 450.24679029 C-37.53815978 450.24022087 -41.72766092 450.24516008 -45.91717529 450.24867249 C-54.12562953 450.25371825 -62.33404353 450.24806833 -70.54249276 450.23882218 C-80.09434283 450.22844863 -89.64618416 450.22850809 -99.1980388 450.22899476 C-116.23538724 450.22949559 -133.27271692 450.22032795 -150.31005859 450.20581055 C-166.85693707 450.19171829 -183.40379903 450.18463995 -199.95068359 450.18530273 C-201.47973977 450.18536267 -201.47973977 450.18536267 -203.03968598 450.18542381 C-204.05726404 450.18546417 -205.07484209 450.18550452 -206.12325585 450.1855461 C-224.94215641 450.18623526 -243.76104994 450.18035036 -262.57994822 450.17139288 C-269.24456415 450.16837187 -275.90917878 450.16731278 -282.57379532 450.16686058 C-290.68957539 450.16617969 -298.8053436 450.16173231 -306.92111863 450.15252777 C-311.06509362 450.14789894 -315.2090534 450.14486827 -319.35303116 450.14612198 C-323.14142226 450.14721258 -326.92977965 450.14372599 -330.71816371 450.13647345 C-332.09357415 450.13465197 -333.46898805 450.13453769 -334.84439863 450.13624074 C-336.7042453 450.13828978 -338.56409584 450.13366193 -340.42393684 450.12863445 C-341.45992394 450.12793003 -342.49591103 450.1272256 -343.56329167 450.12649983 C-346 450 -346 450 -348 449 C-348.33 449.66 -348.66 450.32 -349 451 C-350.81546807 447.14213034 -351.09380477 444.23294004 -351 440 C-350.28995599 439.99978263 -349.57991198 439.99956526 -348.84835148 439.99934131 C-306.76988231 439.98582688 -264.69150727 439.94635274 -222.61309755 439.87314438 C-217.56123852 439.86437758 -212.50937915 439.85582778 -207.45751953 439.84741211 C-206.45178084 439.84573305 -205.44604214 439.84405398 -204.40982652 439.84232404 C-188.12281244 439.81565072 -171.83583355 439.80655872 -155.54879987 439.80395857 C-138.83808861 439.80089965 -122.12747914 439.77895995 -105.41681385 439.73947543 C-95.10453877 439.71570486 -84.79246687 439.70667972 -74.48016816 439.71648689 C-67.40963123 439.72180064 -60.33927645 439.7087827 -53.26879138 439.6813371 C-49.18878157 439.6660414 -45.10917939 439.65884031 -41.02915764 439.67340279 C-37.29182553 439.6865636 -33.555283 439.67664271 -29.81803977 439.64856227 C-27.82969543 439.63957036 -25.84128656 439.65510258 -23.85299015 439.67157966 C-16.62048422 439.58989168 -11.53307232 438.882799 -6 434 C-1.42322367 429.07116395 -0.874923 425.58754281 -0.8613348 418.97785664 C-0.85707147 417.89379355 -0.85707147 417.89379355 -0.85272202 416.7878302 C-0.84434899 414.34741847 -0.84310477 411.90705405 -0.84178162 409.46662903 C-0.83721804 407.70687376 -0.83221832 405.94711957 -0.82681805 404.18736666 C-0.81320425 399.33707665 -0.80580922 394.48679366 -0.79939139 389.63648951 C-0.79140166 384.41153614 -0.77769899 379.18659748 -0.76467896 373.96165466 C-0.74289592 364.90422334 -0.72475812 355.84679055 -0.70907402 346.78934669 C-0.68639201 333.6936924 -0.65824688 320.59805436 -0.62875474 307.50241383 C-0.58105834 286.25723163 -0.53779971 265.01204278 -0.49731445 243.7668457 C-0.45796994 223.12523888 -0.41654623 202.48363797 -0.37231445 181.84204102 C-0.36822804 179.9345331 -0.36822804 179.9345331 -0.36405908 177.98848967 C-0.35037978 171.60908714 -0.33665947 165.2296847 -0.32291877 158.85028231 C-0.20892182 105.90020052 -0.10211959 52.95010594 0 0 Z " fill="#893ADC" transform="translate(421,26)"/>
<path d="M0 0 C12.54 0 25.08 0 38 0 C43.62521491 6.75025789 43.62521491 6.75025789 43.63491821 10.02197266 C43.64901733 10.76199524 43.66311646 11.50201782 43.67764282 12.26446533 C43.66752167 13.0563324 43.65740051 13.84819946 43.64697266 14.6640625 C43.65573425 15.51361511 43.66449585 16.36316772 43.67352295 17.23846436 C43.6954513 20.0345025 43.68098798 22.82894701 43.6640625 25.625 C43.66743253 27.57503563 43.67228671 29.5250692 43.67855835 31.47509766 C43.68592078 35.55717007 43.67524441 39.63869453 43.65185547 43.72070312 C43.62336815 48.94649878 43.63977549 54.17101046 43.66971779 59.39675903 C43.68780775 63.42205434 43.68202493 67.44704651 43.66907883 71.47235107 C43.66574951 73.39882561 43.66981517 75.3253279 43.68147659 77.25177002 C43.69421337 79.94723126 43.67476988 82.64062947 43.64697266 85.3359375 C43.65709381 86.12780457 43.66721497 86.91967163 43.67764282 87.73553467 C43.6635437 88.47555725 43.64944458 89.21557983 43.63491821 89.97802734 C43.63303308 90.61364594 43.63114796 91.24926453 43.6292057 91.90414429 C43 94 43 94 38 100 C25.46 100 12.92 100 0 100 C0 67 0 34 0 0 Z " fill="#FFC81C" transform="translate(441,356)"/>
<path d="M0 0 C12.54 0 25.08 0 38 0 C43.62521491 6.75025789 43.62521491 6.75025789 43.63491821 10.02197266 C43.64901733 10.76199524 43.66311646 11.50201782 43.67764282 12.26446533 C43.66752167 13.0563324 43.65740051 13.84819946 43.64697266 14.6640625 C43.65573425 15.51361511 43.66449585 16.36316772 43.67352295 17.23846436 C43.6954513 20.0345025 43.68098798 22.82894701 43.6640625 25.625 C43.66743253 27.57503563 43.67228671 29.5250692 43.67855835 31.47509766 C43.68592078 35.55717007 43.67524441 39.63869453 43.65185547 43.72070312 C43.62336815 48.94649878 43.63977549 54.17101046 43.66971779 59.39675903 C43.68780775 63.42205434 43.68202493 67.44704651 43.66907883 71.47235107 C43.66574951 73.39882561 43.66981517 75.3253279 43.68147659 77.25177002 C43.69421337 79.94723126 43.67476988 82.64062947 43.64697266 85.3359375 C43.65709381 86.12780457 43.66721497 86.91967163 43.67764282 87.73553467 C43.6635437 88.47555725 43.64944458 89.21557983 43.63491821 89.97802734 C43.63303308 90.61364594 43.63114796 91.24926453 43.6292057 91.90414429 C43 94 43 94 38 100 C25.46 100 12.92 100 0 100 C0 67 0 34 0 0 Z " fill="#5E9AF6" transform="translate(441,256)"/>
<path d="M0 0 C12.21 0 24.42 0 37 0 C42.62521491 6.75025789 42.62521491 6.75025789 42.63491821 10.02197266 C42.64901733 10.76199524 42.66311646 11.50201782 42.67764282 12.26446533 C42.66752167 13.0563324 42.65740051 13.84819946 42.64697266 14.6640625 C42.65573425 15.51361511 42.66449585 16.36316772 42.67352295 17.23846436 C42.6954513 20.0345025 42.68098798 22.82894701 42.6640625 25.625 C42.66743253 27.57503563 42.67228671 29.5250692 42.67855835 31.47509766 C42.68592078 35.55717007 42.67524441 39.63869453 42.65185547 43.72070312 C42.62336815 48.94649878 42.63977549 54.17101046 42.66971779 59.39675903 C42.68780775 63.42205434 42.68202493 67.44704651 42.66907883 71.47235107 C42.66574951 73.39882561 42.66981517 75.3253279 42.68147659 77.25177002 C42.69421337 79.94723126 42.67476988 82.64062947 42.64697266 85.3359375 C42.65709381 86.12780457 42.66721497 86.91967163 42.67764282 87.73553467 C42.6635437 88.47555725 42.64944458 89.21557983 42.63491821 89.97802734 C42.63303308 90.61364594 42.63114796 91.24926453 42.6292057 91.90414429 C42 94 42 94 37 100 C24.79 100 12.58 100 0 100 C0 67 0 34 0 0 Z " fill="#90B46A" transform="translate(442,56)"/>
<path d="M0 0 C1.05743408 -0.00217529 2.11486816 -0.00435059 3.2043457 -0.0065918 C4.34476318 -0.00183838 5.48518066 0.00291504 6.66015625 0.0078125 C7.83989014 0.01192139 9.01962402 0.01603027 10.23510742 0.02026367 C19.33711047 0.07590597 28.43609595 0.21065465 37.53515625 0.4453125 C39.37484985 0.47890869 39.37484985 0.47890869 41.25170898 0.51318359 C48.80376302 0.7466597 53.66675351 1.42417143 59.47265625 6.5703125 C63.8617365 11.56898723 64.22544622 15.53670152 64.09765625 22.0859375 C63.53000845 26.69807588 61.93483654 29.80017545 58.72265625 33.1328125 C53.66449852 37.00546451 48.76271533 38.24714174 42.5144043 38.29394531 C41.47620041 38.30355286 40.43799652 38.3131604 39.36833191 38.32305908 C38.25162613 38.32730896 37.13492035 38.33155884 35.984375 38.3359375 C34.83024612 38.34163757 33.67611725 38.34733765 32.48701477 38.35321045 C30.04514481 38.3626544 27.60326214 38.36919203 25.16137695 38.37304688 C21.43483124 38.38274826 17.70883808 38.41377655 13.98242188 38.4453125 C11.60807619 38.45184327 9.23372656 38.45709345 6.859375 38.4609375 C5.74874191 38.4732843 4.63810883 38.4856311 3.49382019 38.49835205 C-4.91987328 38.47425042 -11.02565119 37.21084694 -17.27734375 31.1328125 C-21.20334098 25.71764391 -21.17110879 19.55780268 -20.27734375 13.1328125 C-18.12747867 7.4549637 -14.64243786 3.98658596 -9.27734375 1.1328125 C-6.14302806 0.13633705 -3.27958883 0.00399637 0 0 Z " fill="#57585A" transform="translate(48.27734375,396.8671875)"/>
<path d="M0 0 C1.05743408 -0.00217529 2.11486816 -0.00435059 3.2043457 -0.0065918 C4.34476318 -0.00183838 5.48518066 0.00291504 6.66015625 0.0078125 C7.83989014 0.01192139 9.01962402 0.01603027 10.23510742 0.02026367 C19.33711047 0.07590597 28.43609595 0.21065465 37.53515625 0.4453125 C39.37484985 0.47890869 39.37484985 0.47890869 41.25170898 0.51318359 C48.80376302 0.7466597 53.66675351 1.42417143 59.47265625 6.5703125 C63.8617365 11.56898723 64.22544622 15.53670152 64.09765625 22.0859375 C63.53000845 26.69807588 61.93483654 29.80017545 58.72265625 33.1328125 C53.66449852 37.00546451 48.76271533 38.24714174 42.5144043 38.29394531 C41.47620041 38.30355286 40.43799652 38.3131604 39.36833191 38.32305908 C38.25162613 38.32730896 37.13492035 38.33155884 35.984375 38.3359375 C34.83024612 38.34163757 33.67611725 38.34733765 32.48701477 38.35321045 C30.04514481 38.3626544 27.60326214 38.36919203 25.16137695 38.37304688 C21.43483124 38.38274826 17.70883808 38.41377655 13.98242188 38.4453125 C11.60807619 38.45184327 9.23372656 38.45709345 6.859375 38.4609375 C5.74874191 38.4732843 4.63810883 38.4856311 3.49382019 38.49835205 C-4.91987328 38.47425042 -11.02565119 37.21084694 -17.27734375 31.1328125 C-21.20334098 25.71764391 -21.17110879 19.55780268 -20.27734375 13.1328125 C-18.12747867 7.4549637 -14.64243786 3.98658596 -9.27734375 1.1328125 C-6.14302806 0.13633705 -3.27958883 0.00399637 0 0 Z " fill="#57585A" transform="translate(48.27734375,316.8671875)"/>
<path d="M0 0 C1.05743408 -0.00217529 2.11486816 -0.00435059 3.2043457 -0.0065918 C4.34476318 -0.00183838 5.48518066 0.00291504 6.66015625 0.0078125 C7.83989014 0.01192139 9.01962402 0.01603027 10.23510742 0.02026367 C19.33711047 0.07590597 28.43609595 0.21065465 37.53515625 0.4453125 C39.37484985 0.47890869 39.37484985 0.47890869 41.25170898 0.51318359 C48.80376302 0.7466597 53.66675351 1.42417143 59.47265625 6.5703125 C63.8617365 11.56898723 64.22544622 15.53670152 64.09765625 22.0859375 C63.53000845 26.69807588 61.93483654 29.80017545 58.72265625 33.1328125 C53.66449852 37.00546451 48.76271533 38.24714174 42.5144043 38.29394531 C41.47620041 38.30355286 40.43799652 38.3131604 39.36833191 38.32305908 C38.25162613 38.32730896 37.13492035 38.33155884 35.984375 38.3359375 C34.83024612 38.34163757 33.67611725 38.34733765 32.48701477 38.35321045 C30.04514481 38.3626544 27.60326214 38.36919203 25.16137695 38.37304688 C21.43483124 38.38274826 17.70883808 38.41377655 13.98242188 38.4453125 C11.60807619 38.45184327 9.23372656 38.45709345 6.859375 38.4609375 C5.74874191 38.4732843 4.63810883 38.4856311 3.49382019 38.49835205 C-4.91987328 38.47425042 -11.02565119 37.21084694 -17.27734375 31.1328125 C-21.20334098 25.71764391 -21.17110879 19.55780268 -20.27734375 13.1328125 C-18.12747867 7.4549637 -14.64243786 3.98658596 -9.27734375 1.1328125 C-6.14302806 0.13633705 -3.27958883 0.00399637 0 0 Z " fill="#57585A" transform="translate(48.27734375,236.8671875)"/>
<path d="M0 0 C1.05743408 -0.00217529 2.11486816 -0.00435059 3.2043457 -0.0065918 C4.34476318 -0.00183838 5.48518066 0.00291504 6.66015625 0.0078125 C7.83989014 0.01192139 9.01962402 0.01603027 10.23510742 0.02026367 C19.33711047 0.07590597 28.43609595 0.21065465 37.53515625 0.4453125 C39.37484985 0.47890869 39.37484985 0.47890869 41.25170898 0.51318359 C48.80376302 0.7466597 53.66675351 1.42417143 59.47265625 6.5703125 C63.8617365 11.56898723 64.22544622 15.53670152 64.09765625 22.0859375 C63.53000845 26.69807588 61.93483654 29.80017545 58.72265625 33.1328125 C53.66449852 37.00546451 48.76271533 38.24714174 42.5144043 38.29394531 C41.47620041 38.30355286 40.43799652 38.3131604 39.36833191 38.32305908 C38.25162613 38.32730896 37.13492035 38.33155884 35.984375 38.3359375 C34.83024612 38.34163757 33.67611725 38.34733765 32.48701477 38.35321045 C30.04514481 38.3626544 27.60326214 38.36919203 25.16137695 38.37304688 C21.43483124 38.38274826 17.70883808 38.41377655 13.98242188 38.4453125 C11.60807619 38.45184327 9.23372656 38.45709345 6.859375 38.4609375 C5.74874191 38.4732843 4.63810883 38.4856311 3.49382019 38.49835205 C-4.91987328 38.47425042 -11.02565119 37.21084694 -17.27734375 31.1328125 C-21.20334098 25.71764391 -21.17110879 19.55780268 -20.27734375 13.1328125 C-18.12747867 7.4549637 -14.64243786 3.98658596 -9.27734375 1.1328125 C-6.14302806 0.13633705 -3.27958883 0.00399637 0 0 Z " fill="#57585A" transform="translate(48.27734375,156.8671875)"/>
<path d="M0 0 C1.05743408 -0.00217529 2.11486816 -0.00435059 3.2043457 -0.0065918 C4.34476318 -0.00183838 5.48518066 0.00291504 6.66015625 0.0078125 C7.83989014 0.01192139 9.01962402 0.01603027 10.23510742 0.02026367 C19.33711047 0.07590597 28.43609595 0.21065465 37.53515625 0.4453125 C39.37484985 0.47890869 39.37484985 0.47890869 41.25170898 0.51318359 C48.80376302 0.7466597 53.66675351 1.42417143 59.47265625 6.5703125 C63.8617365 11.56898723 64.22544622 15.53670152 64.09765625 22.0859375 C63.53000845 26.69807588 61.93483654 29.80017545 58.72265625 33.1328125 C53.66449852 37.00546451 48.76271533 38.24714174 42.5144043 38.29394531 C41.47620041 38.30355286 40.43799652 38.3131604 39.36833191 38.32305908 C38.25162613 38.32730896 37.13492035 38.33155884 35.984375 38.3359375 C34.83024612 38.34163757 33.67611725 38.34733765 32.48701477 38.35321045 C30.04514481 38.3626544 27.60326214 38.36919203 25.16137695 38.37304688 C21.43483124 38.38274826 17.70883808 38.41377655 13.98242188 38.4453125 C11.60807619 38.45184327 9.23372656 38.45709345 6.859375 38.4609375 C5.74874191 38.4732843 4.63810883 38.4856311 3.49382019 38.49835205 C-4.91987328 38.47425042 -11.02565119 37.21084694 -17.27734375 31.1328125 C-21.20334098 25.71764391 -21.17110879 19.55780268 -20.27734375 13.1328125 C-18.12747867 7.4549637 -14.64243786 3.98658596 -9.27734375 1.1328125 C-6.14302806 0.13633705 -3.27958883 0.00399637 0 0 Z " fill="#57585A" transform="translate(48.27734375,76.8671875)"/>
<path d="M0 0 C0.33 0 0.66 0 1 0 C1 29.7 1 59.4 1 90 C22.538035 91.01931107 22.538035 91.01931107 30 86 C32.48524042 82.27213937 32.30666017 79.35814672 32.31884766 75.0402832 C32.33391609 73.82530655 32.33391609 73.82530655 32.34928894 72.58578491 C32.38018937 69.9074576 32.39717504 67.22923056 32.4140625 64.55078125 C32.43276864 62.69417962 32.45234163 60.83758653 32.4727478 58.98100281 C32.52413357 54.09350621 32.56372477 49.20598203 32.60089111 44.31835938 C32.64089039 39.33131043 32.6920013 34.34437687 32.7421875 29.35742188 C32.83902308 19.57169556 32.92340342 9.78590419 33 0 C35.1875 -0.375 35.1875 -0.375 38 0 C41.50701087 3.11030765 43.23043418 5.3214569 43.63491821 10.02197266 C43.66439377 11.56906039 43.66674855 13.11682038 43.64697266 14.6640625 C43.65573425 15.51361511 43.66449585 16.36316772 43.67352295 17.23846436 C43.6954513 20.0345025 43.68098798 22.82894701 43.6640625 25.625 C43.66743253 27.57503563 43.67228671 29.5250692 43.67855835 31.47509766 C43.68592078 35.55717007 43.67524441 39.63869453 43.65185547 43.72070312 C43.62336815 48.94649878 43.63977549 54.17101046 43.66971779 59.39675903 C43.68780775 63.42205434 43.68202493 67.44704651 43.66907883 71.47235107 C43.66574951 73.39882561 43.66981517 75.3253279 43.68147659 77.25177002 C43.69421337 79.94723126 43.67476988 82.64062947 43.64697266 85.3359375 C43.65709381 86.12780457 43.66721497 86.91967163 43.67764282 87.73553467 C43.6635437 88.47555725 43.64944458 89.21557983 43.63491821 89.97802734 C43.63303308 90.61364594 43.63114796 91.24926453 43.6292057 91.90414429 C43 94 43 94 38 100 C25.46 100 12.92 100 0 100 C0 67 0 34 0 0 Z " fill="#FAA620" transform="translate(441,356)"/>
<path d="M0 0 C2.1875 -0.375 2.1875 -0.375 5 0 C8.50701087 3.11030765 10.23043418 5.3214569 10.63491821 10.02197266 C10.66439377 11.56906039 10.66674855 13.11682038 10.64697266 14.6640625 C10.65573425 15.51361511 10.66449585 16.36316772 10.67352295 17.23846436 C10.6954513 20.0345025 10.68098798 22.82894701 10.6640625 25.625 C10.66743253 27.57503563 10.67228671 29.5250692 10.67855835 31.47509766 C10.68592078 35.55717007 10.67524441 39.63869453 10.65185547 43.72070312 C10.62336815 48.94649878 10.63977549 54.17101046 10.66971779 59.39675903 C10.68780775 63.42205434 10.68202493 67.44704651 10.66907883 71.47235107 C10.66574951 73.39882561 10.66981517 75.3253279 10.68147659 77.25177002 C10.69421337 79.94723126 10.67476988 82.64062947 10.64697266 85.3359375 C10.65709381 86.12780457 10.66721497 86.91967163 10.67764282 87.73553467 C10.60176978 91.71789379 10.17667468 94.29692935 7.70732117 97.49893188 C4.19222974 100.74623154 4.19222974 100.74623154 1.03588867 100.68115234 C-0.07469658 100.68047256 -0.07469658 100.68047256 -1.2077179 100.67977905 C-2.38300301 100.63332748 -2.38300301 100.63332748 -3.58203125 100.5859375 C-4.80329964 100.57320297 -4.80329964 100.57320297 -6.04924011 100.56021118 C-8.63836525 100.52674176 -11.22432381 100.4514836 -13.8125 100.375 C-15.5722205 100.34489164 -17.33199004 100.31751734 -19.09179688 100.29296875 C-23.39574304 100.22697279 -27.69733555 100.12350329 -32 100 C-32 96.7 -32 93.4 -32 90 C-31.29915283 89.98541748 -30.59830566 89.97083496 -29.8762207 89.95581055 C-26.68776991 89.88114513 -23.50034487 89.78454525 -20.3125 89.6875 C-19.20970703 89.66494141 -18.10691406 89.64238281 -16.97070312 89.61914062 C-15.90400391 89.58369141 -14.83730469 89.54824219 -13.73828125 89.51171875 C-12.75899658 89.48553467 -11.77971191 89.45935059 -10.77075195 89.43237305 C-7.53136561 88.92687008 -5.63713577 87.92636192 -3 86 C-0.51475958 82.27213937 -0.69333983 79.35814672 -0.68115234 75.0402832 C-0.67110672 74.23029877 -0.6610611 73.42031433 -0.65071106 72.58578491 C-0.61981063 69.9074576 -0.60282496 67.22923056 -0.5859375 64.55078125 C-0.56723136 62.69417962 -0.54765837 60.83758653 -0.5272522 58.98100281 C-0.47586643 54.09350621 -0.43627523 49.20598203 -0.39910889 44.31835938 C-0.35910961 39.33131043 -0.3079987 34.34437687 -0.2578125 29.35742188 C-0.16097692 19.57169556 -0.07659658 9.78590419 0 0 Z " fill="#478CF6" transform="translate(474,256)"/>
<path d="M0 0 C2.1875 -0.375 2.1875 -0.375 5 0 C8.50701087 3.11030765 10.23043418 5.3214569 10.63491821 10.02197266 C10.66439377 11.56906039 10.66674855 13.11682038 10.64697266 14.6640625 C10.65573425 15.51361511 10.66449585 16.36316772 10.67352295 17.23846436 C10.6954513 20.0345025 10.68098798 22.82894701 10.6640625 25.625 C10.66743253 27.57503563 10.67228671 29.5250692 10.67855835 31.47509766 C10.68592078 35.55717007 10.67524441 39.63869453 10.65185547 43.72070312 C10.62336815 48.94649878 10.63977549 54.17101046 10.66971779 59.39675903 C10.68780775 63.42205434 10.68202493 67.44704651 10.66907883 71.47235107 C10.66574951 73.39882561 10.66981517 75.3253279 10.68147659 77.25177002 C10.69421337 79.94723126 10.67476988 82.64062947 10.64697266 85.3359375 C10.65709381 86.12780457 10.66721497 86.91967163 10.67764282 87.73553467 C10.60176978 91.71789379 10.17667468 94.29692935 7.70732117 97.49893188 C4.19222974 100.74623154 4.19222974 100.74623154 1.03588867 100.68115234 C-0.07469658 100.68047256 -0.07469658 100.68047256 -1.2077179 100.67977905 C-2.38300301 100.63332748 -2.38300301 100.63332748 -3.58203125 100.5859375 C-4.80329964 100.57320297 -4.80329964 100.57320297 -6.04924011 100.56021118 C-8.63836525 100.52674176 -11.22432381 100.4514836 -13.8125 100.375 C-15.5722205 100.34489164 -17.33199004 100.31751734 -19.09179688 100.29296875 C-23.39574304 100.22697279 -27.69733555 100.12350329 -32 100 C-32 96.7 -32 93.4 -32 90 C-31.29915283 89.98541748 -30.59830566 89.97083496 -29.8762207 89.95581055 C-26.68776991 89.88114513 -23.50034487 89.78454525 -20.3125 89.6875 C-19.20970703 89.66494141 -18.10691406 89.64238281 -16.97070312 89.61914062 C-15.90400391 89.58369141 -14.83730469 89.54824219 -13.73828125 89.51171875 C-12.75899658 89.48553467 -11.77971191 89.45935059 -10.77075195 89.43237305 C-7.53136561 88.92687008 -5.63713577 87.92636192 -3 86 C-0.51475958 82.27213937 -0.69333983 79.35814672 -0.68115234 75.0402832 C-0.67110672 74.23029877 -0.6610611 73.42031433 -0.65071106 72.58578491 C-0.61981063 69.9074576 -0.60282496 67.22923056 -0.5859375 64.55078125 C-0.56723136 62.69417962 -0.54765837 60.83758653 -0.5272522 58.98100281 C-0.47586643 54.09350621 -0.43627523 49.20598203 -0.39910889 44.31835938 C-0.35910961 39.33131043 -0.3079987 34.34437687 -0.2578125 29.35742188 C-0.16097692 19.57169556 -0.07659658 9.78590419 0 0 Z " fill="#E63950" transform="translate(474,156)"/>
<path d="M0 0 C2.1875 -0.375 2.1875 -0.375 5 0 C8.50701087 3.11030765 10.23043418 5.3214569 10.63491821 10.02197266 C10.66439377 11.56906039 10.66674855 13.11682038 10.64697266 14.6640625 C10.65573425 15.51361511 10.66449585 16.36316772 10.67352295 17.23846436 C10.6954513 20.0345025 10.68098798 22.82894701 10.6640625 25.625 C10.66743253 27.57503563 10.67228671 29.5250692 10.67855835 31.47509766 C10.68592078 35.55717007 10.67524441 39.63869453 10.65185547 43.72070312 C10.62336815 48.94649878 10.63977549 54.17101046 10.66971779 59.39675903 C10.68780775 63.42205434 10.68202493 67.44704651 10.66907883 71.47235107 C10.66574951 73.39882561 10.66981517 75.3253279 10.68147659 77.25177002 C10.69421337 79.94723126 10.67476988 82.64062947 10.64697266 85.3359375 C10.65709381 86.12780457 10.66721497 86.91967163 10.67764282 87.73553467 C10.60176978 91.71789379 10.17667468 94.29692935 7.70732117 97.49893188 C4.19222974 100.74623154 4.19222974 100.74623154 1.03588867 100.68115234 C-0.07469658 100.68047256 -0.07469658 100.68047256 -1.2077179 100.67977905 C-2.38300301 100.63332748 -2.38300301 100.63332748 -3.58203125 100.5859375 C-4.80329964 100.57320297 -4.80329964 100.57320297 -6.04924011 100.56021118 C-8.63836525 100.52674176 -11.22432381 100.4514836 -13.8125 100.375 C-15.5722205 100.34489164 -17.33199004 100.31751734 -19.09179688 100.29296875 C-23.39574304 100.22697279 -27.69733555 100.12350329 -32 100 C-32 96.7 -32 93.4 -32 90 C-31.29915283 89.98541748 -30.59830566 89.97083496 -29.8762207 89.95581055 C-26.68776991 89.88114513 -23.50034487 89.78454525 -20.3125 89.6875 C-19.20970703 89.66494141 -18.10691406 89.64238281 -16.97070312 89.61914062 C-15.90400391 89.58369141 -14.83730469 89.54824219 -13.73828125 89.51171875 C-12.75899658 89.48553467 -11.77971191 89.45935059 -10.77075195 89.43237305 C-7.53136561 88.92687008 -5.63713577 87.92636192 -3 86 C-0.51475958 82.27213937 -0.69333983 79.35814672 -0.68115234 75.0402832 C-0.67110672 74.23029877 -0.6610611 73.42031433 -0.65071106 72.58578491 C-0.61981063 69.9074576 -0.60282496 67.22923056 -0.5859375 64.55078125 C-0.56723136 62.69417962 -0.54765837 60.83758653 -0.5272522 58.98100281 C-0.47586643 54.09350621 -0.43627523 49.20598203 -0.39910889 44.31835938 C-0.35910961 39.33131043 -0.3079987 34.34437687 -0.2578125 29.35742188 C-0.16097692 19.57169556 -0.07659658 9.78590419 0 0 Z " fill="#76A34F" transform="translate(474,56)"/>
<path d="M0 0 C1.24377914 -0.00426498 2.48755829 -0.00852997 3.76902771 -0.01292419 C5.16011051 -0.01257463 6.55119328 -0.01211307 7.942276 -0.0115509 C9.39728889 -0.01454079 10.85230098 -0.01794292 12.30731201 -0.02172852 C16.27007484 -0.03059005 20.2328161 -0.03290753 24.19558787 -0.0335443 C27.49845312 -0.03449162 30.80131328 -0.03816786 34.10417658 -0.0417164 C41.8936368 -0.04986914 49.68308545 -0.05229989 57.47254944 -0.05158997 C65.51994195 -0.05098895 73.56726748 -0.06154368 81.61464304 -0.07733363 C88.51315437 -0.09038928 95.41164377 -0.0957747 102.31016737 -0.09513456 C106.43502215 -0.09487899 110.55981744 -0.0977625 114.68465996 -0.10831261 C118.56288282 -0.11796048 122.44098891 -0.1180957 126.31921577 -0.11079597 C127.74549148 -0.10974599 129.17177433 -0.11213738 130.59803772 -0.11815643 C132.53938368 -0.12582078 134.48076904 -0.12005754 136.42211914 -0.11352539 C137.51037963 -0.11407016 138.59864012 -0.11461493 139.7198782 -0.1151762 C142.27455139 0.13371277 142.27455139 0.13371277 144.27455139 2.13371277 C143.71899584 6.68926832 143.71899584 6.68926832 142.27455139 8.13371277 C140.36821981 8.23467484 138.45810377 8.26448479 136.54910278 8.26742554 C135.30532364 8.27169052 134.06154449 8.27595551 132.78007507 8.28034973 C131.38899228 8.28000017 129.99790951 8.27953861 128.60682678 8.27897644 C127.1518139 8.28196633 125.69680181 8.28536846 124.24179077 8.28915405 C120.27902794 8.29801559 116.31628669 8.30033307 112.35351491 8.30096984 C109.05064967 8.30191715 105.7477895 8.30559339 102.4449262 8.30914193 C94.65546599 8.31729468 86.86601734 8.31972542 79.07655334 8.3190155 C71.02916083 8.31841448 62.9818353 8.32896922 54.93445975 8.34475917 C48.03594841 8.35781482 41.13745902 8.36320023 34.23893541 8.36256009 C30.11408064 8.36230452 25.98928535 8.36518804 21.86444283 8.37573814 C17.98621997 8.38538602 14.10811387 8.38552124 10.22988701 8.37822151 C8.8036113 8.37717153 7.37732845 8.37956292 5.95106506 8.38558197 C4.00971911 8.39324632 2.06833374 8.38748308 0.12698364 8.38095093 C-0.96127685 8.3814957 -2.04953733 8.38204046 -3.17077541 8.38260174 C-5.72544861 8.13371277 -5.72544861 8.13371277 -7.72544861 6.13371277 C-6.98284644 0.04437502 -5.89885421 0.00908697 0 0 Z " fill="#B070F4" transform="translate(138.72544860839844,33.86628723144531)"/>
<path d="M0 0 C4.78413841 2.26195665 7.97098232 5.03630867 10 10 C10.92497385 16.81559679 10.70174774 22.72271828 6.5625 28.37890625 C2.47831177 32.61625154 -2.59869029 34.80470705 -8.44599915 35.14044189 C-9.81331429 35.1506839 -9.81331429 35.1506839 -11.20825195 35.16113281 C-12.24645584 35.17074036 -13.28465973 35.1803479 -14.35432434 35.19024658 C-15.47103012 35.19449646 -16.5877359 35.19874634 -17.73828125 35.203125 C-18.89241013 35.20882507 -20.046539 35.21452515 -21.23564148 35.22039795 C-23.67751144 35.2298419 -26.11939411 35.23637953 -28.5612793 35.24023438 C-32.28782501 35.24993576 -36.01381817 35.28096405 -39.74023438 35.3125 C-42.11458006 35.31903077 -44.48892969 35.32428095 -46.86328125 35.328125 C-47.97391434 35.3404718 -49.08454742 35.3528186 -50.22883606 35.36553955 C-58.6459424 35.34142814 -64.73999305 34.0811496 -71 28 C-71.71153075 26.35198719 -72.3849886 24.68641134 -73 23 C-72.2616391 23.00666183 -71.5232782 23.01332367 -70.76254272 23.02018738 C-63.78900907 23.08040979 -56.81551452 23.1260309 -49.84178734 23.15543652 C-46.25687908 23.17106279 -42.6721865 23.1922448 -39.08740234 23.22631836 C-35.62497475 23.25902129 -32.16275404 23.27687586 -28.70018387 23.28463173 C-26.7426292 23.29283593 -24.78515724 23.31623793 -22.82772827 23.33988953 C-21.62693634 23.34011612 -20.42614441 23.34034271 -19.18896484 23.34057617 C-18.13639496 23.34723801 -17.08382507 23.35389984 -15.99935913 23.36076355 C-11.81630455 22.85762486 -8.44612305 21.34994385 -5.35546875 18.46484375 C-1.88165415 13.92216312 -0.86031402 11.55278832 -0.4375 5.875 C-0.31181641 4.23144531 -0.31181641 4.23144531 -0.18359375 2.5546875 C-0.12300781 1.71164062 -0.06242187 0.86859375 0 0 Z " fill="#434145" transform="translate(102,400)"/>
<path d="M0 0 C4.78413841 2.26195665 7.97098232 5.03630867 10 10 C10.92497385 16.81559679 10.70174774 22.72271828 6.5625 28.37890625 C2.47831177 32.61625154 -2.59869029 34.80470705 -8.44599915 35.14044189 C-9.81331429 35.1506839 -9.81331429 35.1506839 -11.20825195 35.16113281 C-12.24645584 35.17074036 -13.28465973 35.1803479 -14.35432434 35.19024658 C-15.47103012 35.19449646 -16.5877359 35.19874634 -17.73828125 35.203125 C-18.89241013 35.20882507 -20.046539 35.21452515 -21.23564148 35.22039795 C-23.67751144 35.2298419 -26.11939411 35.23637953 -28.5612793 35.24023438 C-32.28782501 35.24993576 -36.01381817 35.28096405 -39.74023438 35.3125 C-42.11458006 35.31903077 -44.48892969 35.32428095 -46.86328125 35.328125 C-47.97391434 35.3404718 -49.08454742 35.3528186 -50.22883606 35.36553955 C-58.6459424 35.34142814 -64.73999305 34.0811496 -71 28 C-71.71153075 26.35198719 -72.3849886 24.68641134 -73 23 C-72.2616391 23.00666183 -71.5232782 23.01332367 -70.76254272 23.02018738 C-63.78900907 23.08040979 -56.81551452 23.1260309 -49.84178734 23.15543652 C-46.25687908 23.17106279 -42.6721865 23.1922448 -39.08740234 23.22631836 C-35.62497475 23.25902129 -32.16275404 23.27687586 -28.70018387 23.28463173 C-26.7426292 23.29283593 -24.78515724 23.31623793 -22.82772827 23.33988953 C-21.62693634 23.34011612 -20.42614441 23.34034271 -19.18896484 23.34057617 C-18.13639496 23.34723801 -17.08382507 23.35389984 -15.99935913 23.36076355 C-11.81630455 22.85762486 -8.44612305 21.34994385 -5.35546875 18.46484375 C-1.88165415 13.92216312 -0.86031402 11.55278832 -0.4375 5.875 C-0.31181641 4.23144531 -0.31181641 4.23144531 -0.18359375 2.5546875 C-0.12300781 1.71164062 -0.06242187 0.86859375 0 0 Z " fill="#434145" transform="translate(102,320)"/>
<path d="M0 0 C4.78413841 2.26195665 7.97098232 5.03630867 10 10 C10.92497385 16.81559679 10.70174774 22.72271828 6.5625 28.37890625 C2.47831177 32.61625154 -2.59869029 34.80470705 -8.44599915 35.14044189 C-9.81331429 35.1506839 -9.81331429 35.1506839 -11.20825195 35.16113281 C-12.24645584 35.17074036 -13.28465973 35.1803479 -14.35432434 35.19024658 C-15.47103012 35.19449646 -16.5877359 35.19874634 -17.73828125 35.203125 C-18.89241013 35.20882507 -20.046539 35.21452515 -21.23564148 35.22039795 C-23.67751144 35.2298419 -26.11939411 35.23637953 -28.5612793 35.24023438 C-32.28782501 35.24993576 -36.01381817 35.28096405 -39.74023438 35.3125 C-42.11458006 35.31903077 -44.48892969 35.32428095 -46.86328125 35.328125 C-47.97391434 35.3404718 -49.08454742 35.3528186 -50.22883606 35.36553955 C-58.6459424 35.34142814 -64.73999305 34.0811496 -71 28 C-71.71153075 26.35198719 -72.3849886 24.68641134 -73 23 C-72.2616391 23.00666183 -71.5232782 23.01332367 -70.76254272 23.02018738 C-63.78900907 23.08040979 -56.81551452 23.1260309 -49.84178734 23.15543652 C-46.25687908 23.17106279 -42.6721865 23.1922448 -39.08740234 23.22631836 C-35.62497475 23.25902129 -32.16275404 23.27687586 -28.70018387 23.28463173 C-26.7426292 23.29283593 -24.78515724 23.31623793 -22.82772827 23.33988953 C-21.62693634 23.34011612 -20.42614441 23.34034271 -19.18896484 23.34057617 C-18.13639496 23.34723801 -17.08382507 23.35389984 -15.99935913 23.36076355 C-11.81630455 22.85762486 -8.44612305 21.34994385 -5.35546875 18.46484375 C-1.88165415 13.92216312 -0.86031402 11.55278832 -0.4375 5.875 C-0.31181641 4.23144531 -0.31181641 4.23144531 -0.18359375 2.5546875 C-0.12300781 1.71164063 -0.06242187 0.86859375 0 0 Z " fill="#434145" transform="translate(102,240)"/>
<path d="M0 0 C4.78413841 2.26195665 7.97098232 5.03630867 10 10 C10.92497385 16.81559679 10.70174774 22.72271828 6.5625 28.37890625 C2.47831177 32.61625154 -2.59869029 34.80470705 -8.44599915 35.14044189 C-9.81331429 35.1506839 -9.81331429 35.1506839 -11.20825195 35.16113281 C-12.24645584 35.17074036 -13.28465973 35.1803479 -14.35432434 35.19024658 C-15.47103012 35.19449646 -16.5877359 35.19874634 -17.73828125 35.203125 C-18.89241013 35.20882507 -20.046539 35.21452515 -21.23564148 35.22039795 C-23.67751144 35.2298419 -26.11939411 35.23637953 -28.5612793 35.24023438 C-32.28782501 35.24993576 -36.01381817 35.28096405 -39.74023438 35.3125 C-42.11458006 35.31903077 -44.48892969 35.32428095 -46.86328125 35.328125 C-47.97391434 35.3404718 -49.08454742 35.3528186 -50.22883606 35.36553955 C-58.6459424 35.34142814 -64.73999305 34.0811496 -71 28 C-71.71153075 26.35198719 -72.3849886 24.68641134 -73 23 C-72.2616391 23.00666183 -71.5232782 23.01332367 -70.76254272 23.02018738 C-63.78900907 23.08040979 -56.81551452 23.1260309 -49.84178734 23.15543652 C-46.25687908 23.17106279 -42.6721865 23.1922448 -39.08740234 23.22631836 C-35.62497475 23.25902129 -32.16275404 23.27687586 -28.70018387 23.28463173 C-26.7426292 23.29283593 -24.78515724 23.31623793 -22.82772827 23.33988953 C-21.62693634 23.34011612 -20.42614441 23.34034271 -19.18896484 23.34057617 C-18.13639496 23.34723801 -17.08382507 23.35389984 -15.99935913 23.36076355 C-11.81630455 22.85762486 -8.44612305 21.34994385 -5.35546875 18.46484375 C-1.88165415 13.92216312 -0.86031402 11.55278832 -0.4375 5.875 C-0.31181641 4.23144531 -0.31181641 4.23144531 -0.18359375 2.5546875 C-0.12300781 1.71164063 -0.06242187 0.86859375 0 0 Z " fill="#434145" transform="translate(102,160)"/>
<path d="M0 0 C4.78413841 2.26195665 7.97098232 5.03630867 10 10 C10.92497385 16.81559679 10.70174774 22.72271828 6.5625 28.37890625 C2.47831177 32.61625154 -2.59869029 34.80470705 -8.44599915 35.14044189 C-9.81331429 35.1506839 -9.81331429 35.1506839 -11.20825195 35.16113281 C-12.24645584 35.17074036 -13.28465973 35.1803479 -14.35432434 35.19024658 C-15.47103012 35.19449646 -16.5877359 35.19874634 -17.73828125 35.203125 C-18.89241013 35.20882507 -20.046539 35.21452515 -21.23564148 35.22039795 C-23.67751144 35.2298419 -26.11939411 35.23637953 -28.5612793 35.24023438 C-32.28782501 35.24993576 -36.01381817 35.28096405 -39.74023438 35.3125 C-42.11458006 35.31903077 -44.48892969 35.32428095 -46.86328125 35.328125 C-47.97391434 35.3404718 -49.08454742 35.3528186 -50.22883606 35.36553955 C-58.6459424 35.34142814 -64.73999305 34.0811496 -71 28 C-71.71153075 26.35198719 -72.3849886 24.68641134 -73 23 C-72.2616391 23.00666183 -71.5232782 23.01332367 -70.76254272 23.02018738 C-63.78900907 23.08040979 -56.81551452 23.1260309 -49.84178734 23.15543652 C-46.25687908 23.17106279 -42.6721865 23.1922448 -39.08740234 23.22631836 C-35.62497475 23.25902129 -32.16275404 23.27687586 -28.70018387 23.28463173 C-26.7426292 23.29283593 -24.78515724 23.31623793 -22.82772827 23.33988953 C-21.62693634 23.34011612 -20.42614441 23.34034271 -19.18896484 23.34057617 C-18.13639496 23.34723801 -17.08382507 23.35389984 -15.99935913 23.36076355 C-11.81630455 22.85762486 -8.44612305 21.34994385 -5.35546875 18.46484375 C-1.88165415 13.92216312 -0.86031402 11.55278832 -0.4375 5.875 C-0.31181641 4.23144531 -0.31181641 4.23144531 -0.18359375 2.5546875 C-0.12300781 1.71164063 -0.06242187 0.86859375 0 0 Z " fill="#434145" transform="translate(102,80)"/>
<path d="M0 0 C2.5625 0.1875 2.5625 0.1875 4.5625 2.1875 C4.00694444 6.74305556 4.00694444 6.74305556 2.5625 8.1875 C0.125 8.375 0.125 8.375 -2.4375 8.1875 C-3.0975 7.5275 -3.7575 6.8675 -4.4375 6.1875 C-3.71780303 0.28598485 -3.71780303 0.28598485 0 0 Z " fill="#B06EF4" transform="translate(295.4375,33.8125)"/>
</svg>
